<svg width="22" height="20" viewBox="0 0 22 20" fill="none" xmlns="http://www.w3.org/2000/svg">
<path d="M1 10C1 5.757 1 3.636 2.464 2.318C3.93 1 6.286 1 11 1C15.714 1 18.071 1 19.535 2.318C20.999 3.636 21 5.758 21 10C21 14.242 21 16.364 19.535 17.682C18.072 19 15.714 19 11 19C6.286 19 3.929 19 2.464 17.682C0.999 16.364 1 14.242 1 10Z" stroke="black" stroke-width="1.5" stroke-linecap="round" stroke-linejoin="round"/>
<path d="M5 14H9M13 6H17M13 10H17M13 14H17M7.4 6H6.6C5.846 6 5.469 6 5.234 6.234C5 6.47 5 6.846 5 7.6V8.4C5 9.154 5 9.531 5.234 9.766C5.47 10 5.846 10 6.6 10H7.4C8.154 10 8.531 10 8.766 9.766C9 9.53 9 9.154 9 8.4V7.6C9 6.846 9 6.469 8.766 6.234C8.53 6 8.154 6 7.4 6Z" stroke="black" stroke-width="1.5" stroke-linecap="round" stroke-linejoin="round"/>
</svg>
