<svg width="16" height="16" viewBox="0 0 16 16" fill="none" xmlns="http://www.w3.org/2000/svg">
<path d="M3.01231 0.800049C2.74231 0.800049 2.49706 0.954174 2.3795 1.19717L0.270126 5.55655C0.21206 5.67658 0.18932 5.81064 0.204558 5.9431C0.219797 6.07557 0.272385 6.20097 0.356188 6.30467L7.52806 15.164C7.59398 15.2456 7.67728 15.3113 7.77188 15.3565C7.86648 15.4016 7.96998 15.4251 8.07481 15.4251C8.17964 15.4251 8.28314 15.4016 8.37775 15.3565C8.47235 15.3113 8.55565 15.2456 8.62156 15.164L15.7934 6.30467C15.8772 6.20097 15.9298 6.07557 15.9451 5.9431C15.9603 5.81064 15.9376 5.67658 15.8795 5.55655L13.7701 1.19717C13.7126 1.07821 13.6228 0.977849 13.5108 0.90761C13.3989 0.837371 13.2695 0.800093 13.1373 0.800049H3.01231ZM2.09206 5.0188L3.45331 2.2063H5.52781L4.64863 5.0188H2.09206ZM2.26306 6.42505H4.56819L6.18144 11.2659L2.26306 6.42505ZM6.05038 6.42505H10.0993L8.07481 12.4984L6.05038 6.42505ZM11.5814 6.42505H13.8866L9.96819 11.2659L11.5814 6.42505ZM14.0576 5.0188H11.5004L10.6213 2.2063H12.6958L14.0576 5.0188ZM10.0278 5.0188H6.12181L7.001 2.2063H9.14863L10.0278 5.0188Z" fill="black"/>
</svg>
