<svg width="70" height="70" viewBox="0 0 70 70" fill="none" xmlns="http://www.w3.org/2000/svg">
<rect width="70" height="70" rx="8" fill="white"/>
<path d="M43 43C46.866 43 50 39.6421 50 35.5C50 31.3579 46.866 28 43 28C39.134 28 36 31.3579 36 35.5C36 39.6421 39.134 43 43 43Z" fill="#19BCFE"/>
<path fill-rule="evenodd" clip-rule="evenodd" d="M28.5 57C30.4891 57 32.3968 56.2625 33.8033 54.9497C35.2098 53.637 36 51.8565 36 50V43H28.5C26.5109 43 24.6032 43.7375 23.1967 45.0503C21.7902 46.363 21 48.1435 21 50C21 51.8565 21.7902 53.637 23.1967 54.9497C24.6032 56.2625 26.5109 57 28.5 57V57Z" fill="#09CF83"/>
<path fill-rule="evenodd" clip-rule="evenodd" d="M28.5 43H36V28H28.5C26.5109 28 24.6032 28.7902 23.1967 30.1967C21.7902 31.6032 21 33.5109 21 35.5C21 37.4891 21.7902 39.3968 23.1967 40.8033C24.6032 42.2098 26.5109 43 28.5 43V43Z" fill="#A259FF"/>
<path fill-rule="evenodd" clip-rule="evenodd" d="M28.5 28H36V14H28.5C26.5109 14 24.6032 14.7375 23.1967 16.0503C21.7902 17.363 21 19.1435 21 21C21 22.8565 21.7902 24.637 23.1967 25.9497C24.6032 27.2625 26.5109 28 28.5 28V28Z" fill="#F24E1E"/>
<path fill-rule="evenodd" clip-rule="evenodd" d="M43 28H36V14H43C44.8565 14 46.637 14.7375 47.9497 16.0503C49.2625 17.363 50 19.1435 50 21C50 22.8565 49.2625 24.637 47.9497 25.9497C46.637 27.2625 44.8565 28 43 28Z" fill="#FF7262"/>
</svg>
