<svg width="70" height="70" viewBox="0 0 70 70" fill="none" xmlns="http://www.w3.org/2000/svg">
<rect width="70" height="70" rx="8" fill="#424050"/>
<path d="M35.5 15C32.8079 15 30.1422 15.5302 27.655 16.5602C25.1678 17.5903 22.9079 19.1 21.0043 21.0033C17.1598 24.8471 15 30.0605 15 35.4965C15 44.556 20.8835 52.2422 29.022 54.9683C30.047 55.1322 30.375 54.4968 30.375 53.9434V50.4795C24.6965 51.7093 23.487 47.733 23.487 47.733C22.544 45.3554 21.2115 44.72 21.2115 44.72C19.346 43.4492 21.355 43.4902 21.355 43.4902C23.405 43.6337 24.4915 45.6013 24.4915 45.6013C26.275 48.7168 29.2885 47.7945 30.457 47.3025C30.6415 45.9703 31.1745 45.0684 31.7485 44.556C27.1975 44.0436 22.421 42.2809 22.421 34.4717C22.421 32.1966 23.2 30.3724 24.5325 28.9172C24.3275 28.4047 23.61 26.2731 24.7375 23.5061C24.7375 23.5061 26.4595 22.9527 30.375 25.5967C31.9945 25.1458 33.7575 24.9203 35.5 24.9203C37.2425 24.9203 39.0055 25.1458 40.625 25.5967C44.5405 22.9527 46.2625 23.5061 46.2625 23.5061C47.39 26.2731 46.6725 28.4047 46.4675 28.9172C47.8 30.3724 48.579 32.1966 48.579 34.4717C48.579 42.3014 43.782 44.0231 39.2105 44.5355C39.9485 45.1709 40.625 46.4212 40.625 48.3274V53.9434C40.625 54.4968 40.953 55.1527 41.9985 54.9683C50.137 52.2217 56 44.556 56 35.4965C56 32.8049 55.4698 30.1396 54.4395 27.6529C53.4093 25.1661 51.8993 22.9066 49.9957 21.0033C48.0921 19.1 45.8322 17.5903 43.345 16.5602C40.8578 15.5302 38.1921 15 35.5 15Z" fill="white"/>
</svg>
