<svg width="32" height="25" viewBox="0 0 32 25" fill="none" xmlns="http://www.w3.org/2000/svg">
<path d="M21.2922 0.291834C21.199 0.384726 21.1252 0.495077 21.0747 0.616567C21.0243 0.738057 20.9984 0.8683 20.9984 0.999835C20.9984 1.13137 21.0243 1.26161 21.0747 1.3831C21.1252 1.50459 21.199 1.61494 21.2922 1.70783L28.5862 8.99983H15.0002C11.0219 8.99983 7.20661 10.5802 4.39356 13.3932C1.58052 16.2063 0.000164032 20.0216 0.000164032 23.9998C0.000164032 24.2651 0.105522 24.5194 0.293058 24.7069C0.480595 24.8945 0.734949 24.9998 1.00017 24.9998C1.26538 24.9998 1.51974 24.8945 1.70727 24.7069C1.89481 24.5194 2.00017 24.2651 2.00017 23.9998C2.00017 20.552 3.3698 17.2454 5.80778 14.8074C8.24575 12.3695 11.5524 10.9998 15.0002 10.9998H28.5862L21.2922 18.2918C21.1044 18.4796 20.9989 18.7343 20.9989 18.9998C20.9989 19.2654 21.1044 19.5201 21.2922 19.7078C21.4799 19.8956 21.7346 20.0011 22.0002 20.0011C22.2657 20.0011 22.5204 19.8956 22.7082 19.7078L31.7082 10.7078C31.8013 10.6149 31.8752 10.5046 31.9256 10.3831C31.976 10.2616 32.002 10.1314 32.002 9.99983C32.002 9.8683 31.976 9.73806 31.9256 9.61657C31.8752 9.49508 31.8013 9.38473 31.7082 9.29183L22.7082 0.291834C22.6153 0.198708 22.5049 0.124822 22.3834 0.0744095C22.2619 0.0239966 22.1317 -0.00195312 22.0002 -0.00195312C21.8686 -0.00195312 21.7384 0.0239966 21.6169 0.0744095C21.4954 0.124822 21.3851 0.198708 21.2922 0.291834Z" fill="white"/>
</svg>
