<svg width="70" height="70" viewBox="0 0 70 70" fill="none" xmlns="http://www.w3.org/2000/svg">
<rect width="70" height="70" rx="8" fill="#330000"/>
<path d="M34.7958 41.8607H25.9874L24.1878 47.4251C24.1405 47.6382 23.9511 47.7803 23.7379 47.7566H19.2864C19.0259 47.7566 18.9549 47.6145 19.0259 47.3304L26.6504 25.3805C26.7214 25.1437 26.7925 24.8833 26.8872 24.5991C26.9819 24.1019 27.0292 23.5809 27.0292 23.06C27.0056 22.9416 27.1003 22.8232 27.2187 22.7996H27.2897H33.3514C33.5408 22.7996 33.6355 22.8706 33.6592 22.989L42.3018 47.3778C42.3729 47.6382 42.3018 47.7566 42.065 47.7566H37.1163C36.9505 47.7803 36.7848 47.6619 36.7374 47.4961L34.7958 41.8607V41.8607ZM27.3607 37.054H33.3751C33.233 36.5567 33.0436 35.9648 32.8305 35.3491C32.6173 34.7098 32.4042 34.0231 32.1911 33.3128C31.9544 32.5787 31.7412 31.8684 31.5045 31.1344C31.2677 30.4003 31.0546 29.7137 30.8651 29.027C30.6757 28.364 30.51 27.7483 30.3442 27.1801H30.2969C30.0838 28.1982 29.8233 29.2164 29.4918 30.2346C29.1366 31.3711 28.7814 32.5551 28.4026 33.739C28.0711 34.9466 27.7159 36.0595 27.3607 37.054V37.054Z" fill="#FF9A00"/>
<path d="M47.5818 26.9433C46.8004 26.967 46.0427 26.6591 45.4744 26.1145C44.9298 25.5226 44.6457 24.7412 44.6693 23.9361C44.6457 23.1311 44.9535 22.3733 45.5218 21.8287C46.09 21.2841 46.8478 21 47.6291 21C48.5526 21 49.263 21.2841 49.7839 21.8287C50.3048 22.397 50.5889 23.1547 50.5653 23.9361C50.5889 24.7412 50.3048 25.5226 49.7365 26.1145C49.1919 26.6828 48.3868 26.9906 47.5818 26.9433ZM44.9298 47.4961V29.2638C44.9298 29.027 45.0245 28.9323 45.2376 28.9323H49.9259C50.1391 28.9323 50.2338 29.0507 50.2338 29.2638V47.4961C50.2338 47.7566 50.1391 47.875 49.9259 47.875H45.285C45.0482 47.875 44.9298 47.7329 44.9298 47.4961V47.4961Z" fill="#FF9A00"/>
</svg>
