<svg width="70" height="70" viewBox="0 0 70 70" fill="none" xmlns="http://www.w3.org/2000/svg">
<rect width="70" height="70" rx="8" fill="#001E36"/>
<path d="M19 46.6869V22.4012C19 22.236 19.069 22.1416 19.2301 22.1416C19.6213 22.1416 19.9895 22.1416 20.5187 22.118C21.071 22.0944 21.6463 22.0944 22.2676 22.0708C22.8889 22.0472 23.5562 22.0472 24.2696 22.0236C24.9829 22 25.6732 22 26.3636 22C28.2505 22 29.8153 22.236 31.1039 22.7316C32.2544 23.1329 33.313 23.7937 34.1874 24.6669C34.9237 25.4222 35.499 26.3426 35.8672 27.3575C36.2124 28.3487 36.3964 29.3636 36.3964 30.4256C36.3964 32.4553 35.9362 34.131 35.0158 35.4527C34.0953 36.7744 32.8067 37.7656 31.311 38.332C29.7462 38.9221 28.0204 39.1345 26.1335 39.1345C25.5812 39.1345 25.213 39.1345 24.9829 39.1109C24.7528 39.0873 24.4306 39.0873 23.9934 39.0873V46.6633C24.0164 46.8285 23.9014 46.9701 23.7403 46.9937C23.7173 46.9937 23.6943 46.9937 23.6483 46.9937H19.2761C19.092 46.9937 19 46.8993 19 46.6869ZM24.0164 26.6966V34.6266C24.3386 34.6503 24.6377 34.6739 24.9139 34.6739H26.1335C27.0309 34.6739 27.9283 34.5322 28.7797 34.249C29.5161 34.0366 30.1604 33.5882 30.6667 32.9982C31.1499 32.4081 31.38 31.6057 31.38 30.5672C31.403 29.8356 31.2189 29.104 30.8508 28.4667C30.4596 27.8531 29.9073 27.3811 29.24 27.1215C28.3886 26.7674 27.4681 26.6258 26.5247 26.6494C25.9264 26.6494 25.3971 26.6494 24.9599 26.673C24.4997 26.6494 24.1775 26.673 24.0164 26.6966Z" fill="#31A8FF"/>
<path d="M50.7552 33.1869C50.0648 32.8093 49.3285 32.5497 48.5461 32.3845C47.6947 32.1956 46.8433 32.0776 45.9689 32.0776C45.5086 32.054 45.0254 32.1248 44.5882 32.2429C44.289 32.3137 44.0359 32.4789 43.8748 32.7149C43.7598 32.9037 43.6907 33.1397 43.6907 33.3521C43.6907 33.5645 43.7828 33.7769 43.9209 33.9657C44.128 34.2254 44.4041 34.4378 44.7032 34.603C45.2325 34.8862 45.7848 35.1458 46.337 35.3818C47.5796 35.8066 48.7762 36.3967 49.8808 37.1047C50.6401 37.6003 51.2614 38.2612 51.6986 39.0636C52.0668 39.8188 52.2509 40.6449 52.2279 41.4945C52.2509 42.6038 51.9287 43.713 51.3305 44.6335C50.6861 45.5775 49.7887 46.3092 48.7532 46.734C47.6257 47.2296 46.245 47.4892 44.5882 47.4892C43.5297 47.4892 42.4942 47.3948 41.4587 47.1824C40.6533 47.0408 39.8479 46.7812 39.1115 46.4272C38.9504 46.3328 38.8354 46.1676 38.8584 45.9788V41.8721C38.8584 41.8013 38.8814 41.7069 38.9504 41.6597C39.0195 41.6125 39.0885 41.6361 39.1575 41.6833C40.055 42.2262 40.9984 42.6038 42.0109 42.8398C42.8854 43.0758 43.8058 43.1938 44.7262 43.1938C45.6007 43.1938 46.222 43.0758 46.6362 42.8634C47.0044 42.6982 47.2575 42.297 47.2575 41.8721C47.2575 41.5417 47.0734 41.2349 46.7052 40.9281C46.337 40.6213 45.5777 40.2673 44.4501 39.8188C43.2765 39.394 42.195 38.8276 41.1825 38.1196C40.4692 37.6003 39.8709 36.9159 39.4337 36.1134C39.0655 35.3582 38.8814 34.5322 38.9044 33.7061C38.9044 32.6913 39.1806 31.7236 39.6868 30.8504C40.2621 29.9063 41.1135 29.1511 42.103 28.6791C43.1845 28.1126 44.5422 27.853 46.176 27.853C47.1194 27.853 48.0859 27.9238 49.0293 28.0654C49.7197 28.1598 50.387 28.3487 51.0083 28.6083C51.1003 28.6319 51.1924 28.7263 51.2384 28.8207C51.2614 28.9151 51.2844 29.0095 51.2844 29.1039V32.9509C51.2844 33.0453 51.2384 33.1397 51.1694 33.1869C50.9623 33.2341 50.8472 33.2341 50.7552 33.1869Z" fill="#31A8FF"/>
</svg>
