<svg width="27" height="27" viewBox="0 0 27 27" fill="none" xmlns="http://www.w3.org/2000/svg">
<path d="M4.45305 13.5001C3.9685 13.43 3.58305 13.3116 3.24471 13.117C2.68771 12.7972 2.22567 12.3352 1.90588 11.7782C1.4165 10.93 1.4165 9.7905 1.4165 7.51158C1.4165 5.23266 1.4165 4.09321 1.90588 3.24616C2.2273 2.69033 2.68888 2.22754 3.24471 1.90612C4.09296 1.41675 5.23242 1.41675 7.51134 1.41675C9.79025 1.41675 10.9297 1.41675 11.7768 1.90612C12.3326 2.22754 12.7954 2.68912 13.1168 3.24496C13.3113 3.58329 13.4298 3.96875 13.4998 4.45329" stroke="white" stroke-width="1.5" stroke-linecap="round" stroke-linejoin="round"/>
<path d="M10.5054 19.5418C10.0148 19.4717 9.62697 19.3533 9.28622 19.1564C8.72937 18.8369 8.26734 18.3753 7.94738 17.8187C7.45801 16.9681 7.45801 15.831 7.45801 13.5533C7.45801 11.2744 7.45801 10.135 7.94738 9.2867C8.2688 8.73087 8.73038 8.26929 9.28622 7.94787C10.1345 7.4585 11.2739 7.4585 13.5516 7.4585C15.8305 7.4585 16.97 7.4585 17.817 7.94787C18.3729 8.26929 18.8357 8.73087 19.1559 9.2867C19.3528 9.62745 19.47 10.0153 19.5413 10.5059" stroke="white" stroke-width="1.5" stroke-linecap="round" stroke-linejoin="round"/>
<path d="M13.5 19.5417C13.5 17.2821 13.5 16.1535 13.9858 15.3125C14.3039 14.7615 14.7615 14.3039 15.3125 13.9858C16.1535 13.5 17.2821 13.5 19.5417 13.5C21.8012 13.5 22.9298 13.5 23.7708 13.9858C24.3219 14.3039 24.7794 14.7615 25.0976 15.3125C25.5833 16.1535 25.5833 17.2821 25.5833 19.5417C25.5833 21.8012 25.5833 22.9298 25.0976 23.7708C24.7794 24.3219 24.3219 24.7794 23.7708 25.0976C22.9298 25.5833 21.8012 25.5833 19.5417 25.5833C17.2821 25.5833 16.1535 25.5833 15.3125 25.0976C14.7615 24.7794 14.3039 24.3219 13.9858 23.7708C13.5 22.9298 13.5 21.8012 13.5 19.5417Z" stroke="white" stroke-width="1.5" stroke-linecap="round" stroke-linejoin="round"/>
</svg>
