<svg width="30" height="24" viewBox="0 0 30 24" fill="none" xmlns="http://www.w3.org/2000/svg">
<path d="M26.7188 0.937425C26.3964 0.728891 26.0278 0.602732 25.6453 0.570038C25.2627 0.537344 24.8781 0.599116 24.525 0.749925L12.9562 5.30617C12.6826 5.41857 12.3895 5.47592 12.0938 5.47492H4.6875C4.0659 5.47492 3.46976 5.72185 3.03022 6.16139C2.59068 6.60093 2.34375 7.19707 2.34375 7.81868V8.00617H0V13.6312H2.34375V13.8749C2.35844 14.4867 2.61184 15.0685 3.04979 15.496C3.48775 15.9234 4.07552 16.1626 4.6875 16.1624L7.5 22.1249C7.69044 22.5264 7.99027 22.8661 8.36505 23.1049C8.73983 23.3437 9.17437 23.472 9.61875 23.4749H10.8C11.4183 23.47 12.0097 23.2209 12.4452 22.7819C12.8807 22.3429 13.125 21.7495 13.125 21.1312V16.3874L24.525 20.9437C24.8058 21.054 25.1046 21.1112 25.4062 21.1124C25.8743 21.1038 26.3299 20.9606 26.7188 20.6999C27.0271 20.4917 27.2815 20.213 27.4609 19.887C27.6402 19.5609 27.7393 19.1969 27.75 18.8249V2.86867C27.7483 2.48714 27.6534 2.1118 27.4737 1.77524C27.294 1.43868 27.0349 1.15108 26.7188 0.937425ZM10.7812 7.81868V13.8749H4.6875V7.81868H10.7812ZM10.7812 21.1312H9.6L7.29375 16.1624H10.7812V21.1312ZM13.8187 14.1562C13.5961 14.0425 13.364 13.9484 13.125 13.8749V7.68742C13.3616 7.63824 13.5937 7.56924 13.8187 7.48118L25.4062 2.86867V18.7687L13.8187 14.1562ZM27.8062 8.47492V13.1624C28.4279 13.1624 29.024 12.9155 29.4635 12.476C29.9031 12.0364 30.15 11.4403 30.15 10.8187C30.15 10.1971 29.9031 9.60093 29.4635 9.16139C29.024 8.72185 28.4279 8.47492 27.8062 8.47492Z" fill="white"/>
</svg>
