<svg width="39" height="30" viewBox="0 0 39 30" fill="none" xmlns="http://www.w3.org/2000/svg">
<path d="M31.0934 10.8049C30.5272 7.87946 28.961 5.2421 26.6634 3.34488C24.3657 1.44767 21.4797 0.408759 18.5 0.40625V2.96875C20.8839 2.97121 23.1928 3.80249 25.0312 5.32019C26.8696 6.83789 28.1231 8.94758 28.577 11.2879L28.9089 13.0125L30.6373 13.3264C32.368 13.6397 33.9191 14.5886 34.986 15.9869C36.0529 17.3852 36.5586 19.1318 36.4037 20.8839C36.2488 22.6359 35.4446 24.2667 34.1489 25.4561C32.8532 26.6456 31.1597 27.3077 29.4009 27.3125H18.5V29.875H29.4009C31.7995 29.8698 34.1095 28.9679 35.8772 27.3465C37.6448 25.7252 38.7424 23.5015 38.9543 21.1122C39.1662 18.7229 38.4771 16.3408 37.0224 14.4336C35.5676 12.5265 33.4524 11.2321 31.0921 10.8049M8.25 24.75H15.9375V27.3125H8.25V24.75ZM3.125 24.75H5.6875V27.3125H3.125V24.75ZM5.6875 19.625H15.9375V22.1875H5.6875V19.625ZM0.5625 19.625H3.125V22.1875H0.5625V19.625ZM8.25 14.5H15.9375V17.0625H8.25V14.5ZM3.125 14.5H5.6875V17.0625H3.125V14.5ZM10.8125 9.375H15.9375V11.9375H10.8125V9.375ZM5.6875 9.375H8.25V11.9375H5.6875V9.375ZM13.375 4.25H15.9375V6.8125H13.375V4.25Z" fill="white"/>
</svg>
