<svg width="26" height="26" viewBox="0 0 26 26" fill="none" xmlns="http://www.w3.org/2000/svg">
<path opacity="0.3" d="M19.6669 25.6668C15.0482 25.6668 12.1602 20.6668 14.4709 16.6668C14.9975 15.7547 15.7549 14.9973 16.667 14.4707C17.5791 13.9441 18.6137 13.6669 19.6669 13.6668C24.2856 13.6668 27.1735 18.6668 24.8629 22.6668C24.3363 23.5789 23.5789 24.3363 22.6668 24.8629C21.7547 25.3896 20.7201 25.6668 19.6669 25.6668ZM19.6669 12.3335C15.0482 12.3335 12.1602 7.3335 14.4709 3.3335C14.9975 2.4214 15.7549 1.66399 16.667 1.13738C17.5791 0.610773 18.6137 0.333523 19.6669 0.333496C24.2856 0.333496 27.1735 5.3335 24.8629 9.3335C24.3363 10.2456 23.5789 11.003 22.6668 11.5296C21.7547 12.0562 20.7201 12.3335 19.6669 12.3335ZM6.33355 25.6668C1.71488 25.6668 -1.17312 20.6668 1.13755 16.6668C1.66415 15.7547 2.42155 14.9973 3.33364 14.4707C4.24572 13.9441 5.28036 13.6669 6.33355 13.6668C10.9522 13.6668 13.8402 18.6668 11.5296 22.6668C11.003 23.5789 10.2456 24.3363 9.33346 24.8629C8.42138 25.3896 7.38674 25.6668 6.33355 25.6668Z" fill="white"/>
</svg>
